<svg xmlns="http://www.w3.org/2000/svg" version="1.1" xmlns:xlink="http://www.w3.org/1999/xlink" id="Layer_1" x="0px" y="0px" width="612px" height="792px" viewBox="0 0 612 792" enable-background="new 0 0 612 792" xml:space="preserve"><g>
	<path fill="#5F6B58" d="M267.601,486.744c2.85,2.896,3.496,5.458,1.866,9.293c-4.207,9.901-1.801,19.204,4.727,27.025
		c12.258,14.687,24.568,29.398,37.818,43.174c22.363,23.251,45.025,46.254,68.399,68.48c22.961,21.833,46.988,42.595,74.54,58.628
		c7.761,4.516,16.322,7.789,24.772,10.945c5.277,1.971,11.017,1.968,16.335-0.712c6.47-3.261,7.563-8.851,2.775-14.219
		c-31.531-35.358-63.076-70.702-94.617-106.051c0.121-0.11,0.241-0.221,0.362-0.331c-31.76-34.963-63.552-69.897-95.232-104.933
		c-3.522-3.895-7.448-5.319-12.608-5.055c-2.137,0.109-5.077-0.998-6.447-2.589l-62-89.451l-19.691,19.691L267.601,486.744z"></path>
	<path fill="#5F6B58" d="M190.515,359.6c1.375,45.6,2.845,91.198,4.001,136.804c0.073,2.896-1.576,6.389-3.515,8.682
		c-6.601,7.805-13.826,15.079-20.548,22.787c-4.436,5.087-7.411,11.059-7.512,17.98c-0.241,16.547-1.184,33.146-0.251,49.633
		c2.041,36.055,5.068,72.054,7.701,108.076c0.46,6.293,1.182,6.845,8.321,6.185c0.135-1.367,0.374-2.815,0.409-4.267
		c0.704-28.901,1.371-57.803,2.078-86.704c0.203-8.279,0.307-16.57,0.931-24.82c0.127-1.676,2.146-4.174,3.716-4.557
		c2.616-0.639,4.415,1.322,4.562,4.249c0.129,2.556,0.32,5.111,0.38,7.669c0.768,32.364,1.514,64.729,2.277,97.093
		c0.075,3.16,0.313,6.319,0.307,9.479c-0.004,2.588,1.219,3.219,3.637,3.25c3.747,0.049,3.043-2.498,3.08-4.652
		c0.627-36.736,1.239-73.471,1.858-110.207c0.018-1.052-0.328-2.436,0.203-3.09c1.228-1.512,3.017-3.824,4.346-3.679
		c1.655,0.181,3.297,2.344,4.503,3.977c0.59,0.8,0.201,2.337,0.221,3.541c0.605,35.23,1.199,70.46,1.818,105.69
		c0.047,2.658,0.258,5.312,0.397,8.059c3.747,0.479,6.492,1.234,6.597-4.037c0.729-36.581,1.737-73.156,2.632-109.734
		c0.086-3.503-0.354-7.758,4.581-7.687c4.664,0.067,4.175,4.313,4.255,7.569c0.735,29.654,1.468,59.307,2.115,88.963
		c0.167,7.646,0.025,15.299,0.025,23.104c8.453,1.103,8.447,1.103,9.095-5.586c0.232-2.396,0.557-4.784,0.747-7.183
		c1.998-25.202,4.551-50.378,5.795-75.617c1.185-24.031,1.115-48.13,1.341-72.201c0.066-7.073-2.095-13.748-6.836-19.178
		c-7.121-8.157-14.64-15.971-21.628-24.236c-1.852-2.191-3.437-5.53-3.362-8.294c1.723-63.666,1.135-42.807,3.061-106.467
		l2.432,9.011c-0.174-5.695,1.999-9.023,6.653-12.372c12.26-8.823,24.776-17.575,35.664-27.956
		c17.993-17.155,30.523-37.974,33.684-63.17c6.256-49.86,0.214-98.457-16.79-145.634c-6.744-18.711-16.284-35.963-30.954-49.871
		c-27.176-25.765-65.206-25.778-92.352-0.092c-13.458,12.735-22.478,28.39-29.277,45.353
		c-15.154,37.805-21.411,77.368-20.642,117.853c0.315,16.577,1.737,33.749,6.48,49.498c9.804,32.555,33.623,54.68,61.516,72.437
		c6.66,4.24,13.786,8.63,13.536,16.578L190.515,359.6z"></path>
</g></svg>